<svg width="28" height="28" viewBox="0 0 28 28" fill="none" xmlns="http://www.w3.org/2000/svg">
<g clip-path="url(#clip0_1_13)" filter="url(#filter0_d_1_13)">
<path d="M18.6781 12.9298C19.8884 11.2782 20.4305 9.23057 20.1959 7.19648C19.9613 5.16238 18.9673 3.29186 17.4128 1.95915C15.8583 0.626437 13.8579 -0.0701841 11.8119 0.00865439C9.76581 0.0874929 7.82496 0.935976 6.37762 2.38435C4.93028 3.83273 4.08318 5.77419 4.00581 7.82031C3.92843 9.86643 4.62648 11.8663 5.96031 13.4199C7.29413 14.9734 9.16536 15.966 11.1996 16.1992C13.2339 16.4323 15.2812 15.8888 16.9319 14.6773H16.9306C16.9681 14.7273 17.0081 14.7748 17.0531 14.821L21.8654 19.6333C22.0998 19.8679 22.4178 19.9997 22.7493 19.9998C23.0809 19.9999 23.399 19.8683 23.6335 19.6339C23.8681 19.3996 23.9999 19.0816 24 18.75C24.0001 18.4185 23.8685 18.1004 23.6341 17.8659L18.8218 13.0536C18.7771 13.0083 18.7291 12.9665 18.6781 12.9286V12.9298ZM19.0006 8.125C19.0006 9.02781 18.8227 9.92177 18.4773 10.7559C18.1318 11.5899 17.6254 12.3478 16.987 12.9862C16.3486 13.6246 15.5907 14.1309 14.7567 14.4764C13.9226 14.8219 13.0286 14.9997 12.1258 14.9997C11.223 14.9997 10.329 14.8219 9.49497 14.4764C8.66089 14.1309 7.90302 13.6246 7.26464 12.9862C6.62626 12.3478 6.11987 11.5899 5.77438 10.7559C5.4289 9.92177 5.25108 9.02781 5.25108 8.125C5.25108 6.30171 5.97538 4.55309 7.26464 3.26383C8.55391 1.97456 10.3025 1.25026 12.1258 1.25026C13.9491 1.25026 15.6977 1.97456 16.987 3.26383C18.2763 4.55309 19.0006 6.30171 19.0006 8.125Z" fill="white"/>
</g>
<defs>
<filter id="filter0_d_1_13" x="0" y="0" width="28" height="28" filterUnits="userSpaceOnUse" color-interpolation-filters="sRGB">
<feFlood flood-opacity="0" result="BackgroundImageFix"/>
<feColorMatrix in="SourceAlpha" type="matrix" values="0 0 0 0 0 0 0 0 0 0 0 0 0 0 0 0 0 0 127 0" result="hardAlpha"/>
<feOffset dy="4"/>
<feGaussianBlur stdDeviation="2"/>
<feComposite in2="hardAlpha" operator="out"/>
<feColorMatrix type="matrix" values="0 0 0 0 0 0 0 0 0 0 0 0 0 0 0 0 0 0 0.25 0"/>
<feBlend mode="normal" in2="BackgroundImageFix" result="effect1_dropShadow_1_13"/>
<feBlend mode="normal" in="SourceGraphic" in2="effect1_dropShadow_1_13" result="shape"/>
</filter>
<clipPath id="clip0_1_13">
<rect width="20" height="20" fill="white" transform="translate(4)"/>
</clipPath>
</defs>
</svg>
